<svg
  viewBox="0 0 512 512"
  xmlns="http://www.w3.org/2000/svg">
  <path
    fill="rgb(255, 0, 255)"
    d="M 86.40,480.00
       C 86.40,480.00 425.60,480.00 425.60,480.00
         437.90,480.00 448.00,470.10 448.00,457.90
         448.00,457.90 448.00,246.00 448.00,246.00
         448.00,233.80 438.00,224.00 425.60,224.00
         425.60,224.00 404.00,224.00 404.00,224.00
         404.00,224.00 404.00,193.10 404.00,193.10
         404.00,151.60 387.80,105.50 361.40,77.70
         335.10,49.90 297.40,32.00 256.10,32.00
         256.00,32.00 256.00,32.00 256.00,32.00
         256.00,32.00 255.90,32.00 255.90,32.00
         214.60,32.00 176.90,49.90 150.60,77.60
         124.20,105.40 108.00,151.50 108.00,193.00
         108.00,193.00 108.00,224.00 108.00,224.00
         108.00,224.00 89.00,224.00 89.00,224.00
         89.00,224.00 86.40,224.00 86.40,224.00
         74.00,224.00 64.00,233.90 64.00,246.00
         64.00,246.00 64.00,457.90 64.00,457.90
         64.00,470.10 74.00,480.00 86.40,480.00 Z
       M 161.00,193.10
       C 161.00,165.80 170.90,132.00 189.10,112.80
         189.10,112.80 189.10,112.80 189.10,112.80
         189.10,112.80 189.10,112.50 189.10,112.50
         206.70,93.90 231.00,83.00 255.90,83.00
         255.90,83.00 256.00,83.00 256.00,83.00
         256.00,83.00 256.10,83.00 256.10,83.00
         281.00,83.00 305.30,93.90 322.90,112.50
         322.90,112.50 322.90,112.70 322.90,112.70
         322.90,112.70 322.80,112.80 322.80,112.80
         341.10,132.00 350.90,165.80 350.90,193.10
         350.90,193.10 350.90,224.00 350.90,224.00
         350.90,224.00 333.40,224.00 333.40,224.00
         333.40,224.00 178.40,224.00 178.40,224.00
         178.40,224.00 161.00,224.00 161.00,224.00
         161.00,224.00 161.00,193.10 161.00,193.10 Z" />
</svg>
