<svg
  viewBox="0 0 512 512"
  xmlns="http://www.w3.org/2000/svg">
  <path
    fill="rgb(255, 0, 255)"
    d="M 506.30,417.00
       C 506.30,417.00 293.00,53.00 293.00,53.00
         276.67,25.00 235.46,25.00 219.02,53.00
         219.02,53.00 5.82,417.00 5.82,417.00
         -10.59,444.90 9.85,480.00 42.74,480.00
         42.74,480.00 469.34,480.00 469.34,480.00
         502.10,480.00 522.60,445.00 506.30,417.00 Z
       M 232.00,168.00
       C 232.00,154.75 242.75,144.00 256.00,144.00
         269.25,144.00 280.00,154.80 280.00,168.00
         280.00,168.00 280.00,296.00 280.00,296.00
         280.00,309.25 269.25,320.00 256.90,320.00
         244.55,320.00 232.00,309.30 232.00,296.00
         232.00,296.00 232.00,168.00 232.00,168.00 Z
       M 256.00,416.00
       C 238.64,416.00 224.56,401.92 224.56,384.56
         224.56,367.20 238.63,353.12 256.00,353.12
         273.37,353.12 287.44,367.20 287.44,384.56
         287.40,401.90 273.40,416.00 256.00,416.00 Z" />
</svg>
