<svg
  viewBox="0 0 512 512"
  xmlns="http://www.w3.org/2000/svg">
  <path
    fill="rgb(255, 0, 255)"
    d="M 108.56,342.78
       C 75.34,342.90 48.44,369.87 48.44,403.12
         48.44,436.44 75.46,463.46 108.78,463.46
         142.07,463.46 169.06,436.50 169.12,403.22
         169.02,369.85 141.95,342.82 108.56,342.78
         108.56,342.78 108.56,342.78 108.56,342.78 Z
       M 48.00,186.67
       C 48.00,186.67 48.00,273.22 48.00,273.22
         100.00,273.22 149.94,288.61 186.67,325.33
         223.40,362.05 238.67,411.89 238.67,464.00
         238.67,464.00 325.33,464.00 325.33,464.00
         325.33,312.44 199.67,186.67 48.00,186.67 Z
       M 48.00,48.00
       C 48.00,48.00 48.00,134.56 48.00,134.56
         233.25,134.56 377.22,278.64 377.22,464.00
         377.22,464.00 464.00,464.00 464.00,464.00
         464.00,234.66 277.67,48.00 48.00,48.00 Z" />
</svg>
