<svg
  viewBox="0 0 16 16"
  xmlns="http://www.w3.org/2000/svg">
  <path
    fill="rgb(255, 0, 255)"
    d="M 3.39,10.71
       C 2.35,10.72 1.51,11.56 1.51,12.60
         1.51,13.64 2.36,14.48 3.40,14.48
         4.44,14.48 5.28,13.64 5.29,12.60
         5.28,11.56 4.44,10.71 3.39,10.71
         3.39,10.71 3.39,10.71 3.39,10.71 Z
       M 1.50,5.83
       C 1.50,5.83 1.50,8.54 1.50,8.54
         3.12,8.54 4.69,9.02 5.83,10.17
         6.98,11.31 7.46,12.87 7.46,14.50
         7.46,14.50 10.17,14.50 10.17,14.50
         10.17,9.76 6.24,5.83 1.50,5.83 Z
       M 1.50,1.50
       C 1.50,1.50 1.50,4.21 1.50,4.21
         7.29,4.21 11.79,8.71 11.79,14.50
         11.79,14.50 14.50,14.50 14.50,14.50
         14.50,7.33 8.68,1.50 1.50,1.50 Z" />
</svg>
