<svg
  viewBox="0 0 16 16"
  xmlns="http://www.w3.org/2000/svg">
  <path
    fill="rgb(255, 0, 255)"
    d="M 2.70,15.00
       C 2.70,15.00 13.30,15.00 13.30,15.00
         13.68,15.00 14.00,14.69 14.00,14.31
         14.00,14.31 14.00,7.69 14.00,7.69
         14.00,7.31 13.69,7.00 13.30,7.00
         13.30,7.00 12.62,7.00 12.62,7.00
         12.62,7.00 12.62,6.03 12.62,6.03
         12.62,4.74 12.12,3.30 11.29,2.43
         10.47,1.56 9.29,1.00 8.00,1.00
         8.00,1.00 8.00,1.00 8.00,1.00
         8.00,1.00 8.00,1.00 8.00,1.00
         6.71,1.00 5.53,1.56 4.71,2.42
         3.88,3.29 3.38,4.73 3.38,6.03
         3.38,6.03 3.38,7.00 3.38,7.00
         3.38,7.00 2.78,7.00 2.78,7.00
         2.78,7.00 2.70,7.00 2.70,7.00
         2.31,7.00 2.00,7.31 2.00,7.69
         2.00,7.69 2.00,14.31 2.00,14.31
         2.00,14.69 2.31,15.00 2.70,15.00 Z
       M 5.03,6.03
       C 5.03,5.18 5.34,4.12 5.91,3.52
         5.91,3.52 5.91,3.52 5.91,3.52
         5.91,3.52 5.91,3.52 5.91,3.52
         6.46,2.93 7.22,2.59 8.00,2.59
         8.00,2.59 8.00,2.59 8.00,2.59
         8.00,2.59 8.00,2.59 8.00,2.59
         8.78,2.59 9.54,2.93 10.09,3.52
         10.09,3.52 10.09,3.52 10.09,3.52
         10.09,3.52 10.09,3.52 10.09,3.52
         10.66,4.12 10.97,5.18 10.97,6.03
         10.97,6.03 10.97,7.00 10.97,7.00
         10.97,7.00 10.42,7.00 10.42,7.00
         10.42,7.00 5.58,7.00 5.58,7.00
         5.58,7.00 5.03,7.00 5.03,7.00
         5.03,7.00 5.03,6.03 5.03,6.03 Z" />
</svg>
