<svg
  viewBox="0 0 16 16"
  xmlns="http://www.w3.org/2000/svg">
  <path
    fill="rgb(255, 0, 255)"
    d="M 15.82,13.03
       C 15.82,13.03 9.16,1.66 9.16,1.66
         8.65,0.78 7.36,0.78 6.84,1.66
         6.84,1.66 0.18,13.03 0.18,13.03
         -0.33,13.90 0.31,15.00 1.34,15.00
         1.34,15.00 14.67,15.00 14.67,15.00
         15.69,15.00 16.33,13.91 15.82,13.03 Z
       M 7.25,5.25
       C 7.25,4.84 7.59,4.50 8.00,4.50
         8.41,4.50 8.75,4.84 8.75,5.25
         8.75,5.25 8.75,9.25 8.75,9.25
         8.75,9.66 8.41,10.00 8.03,10.00
         7.64,10.00 7.25,9.67 7.25,9.25
         7.25,9.25 7.25,5.25 7.25,5.25 Z
       M 8.00,13.00
       C 7.46,13.00 7.02,12.56 7.02,12.02
         7.02,11.47 7.46,11.04 8.00,11.04
         8.54,11.04 8.98,11.47 8.98,12.02
         8.98,12.56 8.54,13.00 8.00,13.00 Z" />
</svg>
