<svg
  viewBox="0 0 512 512"
  xmlns="http://www.w3.org/2000/svg">
  <path
    fill="rgb(255, 0, 255)"
    d="M 0.00,409.00
       C 0.00,409.00 0.00,118.00 0.00,118.00
         0.00,118.00 0.00,90.00 0.00,90.00
         0.00,90.00 0.00,77.00 0.00,77.00
         0.07,62.30 7.25,49.50 19.00,40.76
         22.50,38.15 25.89,36.18 30.00,34.70
         36.35,32.41 39.35,32.01 46.00,32.00
         46.00,32.00 201.00,32.00 201.00,32.00
         203.09,32.00 206.06,31.88 208.00,32.60
         211.90,34.03 220.62,43.62 224.00,47.00
         224.00,47.00 259.00,82.00 259.00,82.00
         262.26,85.26 270.15,93.98 274.00,95.40
         275.94,96.12 278.91,96.00 281.00,96.00
         281.00,96.00 370.00,96.00 370.00,96.00
         395.60,96.04 415.96,116.40 416.00,142.00
         416.00,142.00 416.00,192.00 416.00,192.00
         416.00,192.00 156.00,192.00 156.00,192.00
         132.26,192.04 112.65,198.76 97.52,218.00
         91.87,225.17 80.54,249.42 75.75,259.00
         75.75,259.00 25.25,360.00 25.25,360.00
         25.25,360.00 9.25,392.00 9.25,392.00
         6.70,397.10 3.40,404.72 0.00,409.00 Z
       M 0.00,480.00
       C 1.76,473.83 8.57,461.37 11.75,455.00
         11.75,455.00 32.75,413.00 32.75,413.00
         32.75,413.00 98.75,281.00 98.75,281.00
         98.75,281.00 112.75,253.00 112.75,253.00
         121.43,235.64 125.88,224.03 148.00,224.00
         148.00,224.00 480.00,224.00 480.00,224.00
         502.31,224.03 516.94,243.59 510.56,265.00
         509.00,270.23 503.89,279.71 501.25,285.00
         501.25,285.00 483.25,321.00 483.25,321.00
         483.25,321.00 427.25,433.00 427.25,433.00
         427.25,433.00 417.25,453.00 417.25,453.00
         408.91,469.67 403.89,479.97 383.00,480.00
         383.00,480.00 0.00,480.00 0.00,480.00 Z" />
</svg>
