<svg
  viewBox="0 0 16 16"
  xmlns="http://www.w3.org/2000/svg">
  <path
    fill="rgb(255, 0, 255)"
    d="M 1.19,1.01
       C 1.19,1.01 2.94,1.01 2.94,1.01
         2.94,1.01 6.28,1.01 6.28,1.01
         6.35,1.00 6.44,1.00 6.50,1.01
         6.62,1.06 6.89,1.36 7.00,1.47
         7.00,1.47 8.09,2.56 8.09,2.56
         8.20,2.66 8.44,2.94 8.56,2.98
         8.62,3.00 8.72,3.00 8.78,3.00
         8.78,3.00 11.56,3.00 11.56,3.00
         12.36,3.00 13.00,3.64 13.00,4.44
         13.00,4.44 13.00,11.31 13.00,11.31
         13.00,12.11 12.36,12.75 11.56,12.75
         11.56,12.75 1.44,12.75 1.44,12.75
         0.64,12.75 0.00,12.11 0.00,11.31
         0.00,11.31 0.00,3.59 0.00,3.59
         0.00,3.59 0.00,2.78 0.00,2.78
         0.00,2.78 0.00,2.19 0.00,2.19
         0.09,1.76 0.36,1.41 0.72,1.19
         0.87,1.10 1.01,1.05 1.19,1.01 Z" />
</svg>
