<svg
  viewBox="0 0 512 512"
  xmlns="http://www.w3.org/2000/svg">
  <path
    fill="rgb(255, 0, 255)"
    d="M 38.00,32.27
       C 38.00,32.27 94.00,32.27 94.00,32.27
         94.00,32.27 201.00,32.27 201.00,32.27
         203.09,32.00 206.06,31.88 208.00,32.27
         211.90,34.03 220.62,43.62 224.00,47.00
         224.00,47.00 259.00,82.00 259.00,82.00
         262.26,85.26 270.15,93.98 274.00,95.40
         275.94,96.12 278.91,96.00 281.00,96.00
         281.00,96.00 370.00,96.00 370.00,96.00
         395.60,96.04 415.96,116.40 416.00,142.00
         416.00,142.00 416.00,362.00 416.00,362.00
         415.96,387.60 395.60,407.96 370.00,408.00
         370.00,408.00 46.00,408.00 46.00,408.00
         20.40,407.96 0.04,387.60 0.12,362.00
         0.12,362.00 0.12,115.00 0.12,115.00
         0.12,115.00 0.12,89.00 0.12,89.00
         0.12,89.00 0.12,70.00 0.12,70.00
         2.90,56.45 11.36,45.21 23.00,38.07
         27.89,35.07 32.46,33.69 38.00,32.27 Z" />
</svg>
