<svg
  viewBox="0 0 16 16"
  xmlns="http://www.w3.org/2000/svg">
  <path
    fill="rgb(255, 0, 255)"
    d="M 0.00,12.78
       C 0.00,12.78 0.00,3.69 0.00,3.69
         0.00,3.69 0.00,2.81 0.00,2.81
         0.00,2.81 0.00,2.41 0.00,2.41
         0.00,1.95 0.23,1.55 0.59,1.27
         0.70,1.19 0.81,1.13 0.94,1.08
         1.14,1.01 1.23,1.00 1.44,1.00
         1.44,1.00 6.28,1.00 6.28,1.00
         6.35,1.00 6.44,1.00 6.50,1.02
         6.62,1.06 6.89,1.36 7.00,1.47
         7.00,1.47 8.09,2.56 8.09,2.56
         8.20,2.66 8.44,2.94 8.56,2.98
         8.62,3.00 8.72,3.00 8.78,3.00
         8.78,3.00 11.56,3.00 11.56,3.00
         12.36,3.00 13.00,3.64 13.00,4.44
         13.00,4.44 13.00,6.00 13.00,6.00
         13.00,6.00 4.88,6.00 4.88,6.00
         4.13,6.00 3.52,6.21 3.05,6.81
         2.87,7.04 2.52,7.79 2.37,8.09
         2.37,8.09 0.79,11.25 0.79,11.25
         0.79,11.25 0.29,12.25 0.29,12.25
         0.21,12.41 0.11,12.65 0.00,12.78 Z
       M 0.00,15.00
       C 0.06,14.81 0.27,14.42 0.37,14.22
         0.37,14.22 1.02,12.91 1.02,12.91
         1.02,12.91 3.09,8.78 3.09,8.78
         3.09,8.78 3.52,7.91 3.52,7.91
         3.79,7.36 3.93,7.00 4.62,7.00
         4.62,7.00 15.00,7.00 15.00,7.00
         15.70,7.00 16.15,7.61 15.96,8.28
         15.91,8.44 15.75,8.74 15.66,8.91
         15.66,8.91 15.10,10.03 15.10,10.03
         15.10,10.03 13.35,13.53 13.35,13.53
         13.35,13.53 13.04,14.16 13.04,14.16
         12.78,14.68 12.62,15.00 11.97,15.00
         11.97,15.00 0.00,15.00 0.00,15.00 Z" />
</svg>
